#!OML:ASF F:\VICON\USERDATA\INSTALL\rory3\rory3.ASF
:FULLY-SPECIFIED
:DEGREES
441
root 3.45215 17.6256 7.97572 -2.311 9.61301 5.24234
lowerback 11.8472 2.89906 -3.3967
upperback 1.64995 3.40715 -0.160278
thorax -5.09275 1.74308 1.19266
lowerneck -16.7758 3.3868 -9.2242
upperneck 41.1544 7.36384 4.41123
head 17.437 2.2992 5.10409
rclavicle -2.78299e-015 1.19271e-015
rhumerus -35.8942 -14.4616 -78.8948
rradius 35.4506
rwrist 9.44597
rhand -14.9814 10.5667
rfingers 7.12502
rthumb 11.1827 -19.1153
lclavicle -2.78299e-015 1.19271e-015
lhumerus -30.5948 8.16275 76.4861
lradius 38.8727
lwrist 2.19943
lhand -21.5152 28.9564
lfingers 7.12502
lthumb 4.87692 58.8802
rfemur -11.9404 -2.7507 20.6771
rtibia 41.6529
rfoot -20.6576 -2.16468
rtoes 8.37628
lfemur -6.94585 -3.31976 -24.0458
ltibia 27.9737
lfoot -14.8505 -4.94648
ltoes -7.27173
442
root 3.5072 17.6196 7.98527 -2.39762 9.27335 5.17458
lowerback 11.8394 2.93541 -3.07055
upperback 1.63371 3.49558 -0.188057
thorax -5.08863 1.78032 0.966464
lowerneck -16.7615 3.40821 -9.34707
upperneck 41.289 7.48115 4.3517
head 17.4986 2.31102 5.12772
rclavicle -2.56432e-014 -2.78299e-015
rhumerus -35.8958 -14.3817 -78.858
rradius 35.0201
rwrist 9.26219
rhand -15.1239 10.7185
rfingers 7.12502
rthumb 11.0452 -18.9708
lclavicle -2.56432e-014 -2.78299e-015
lhumerus -30.7061 8.24703 76.5547
lradius 38.8563
lwrist 1.64441
lhand -21.9073 28.7044
lfingers 7.12502
lthumb 4.49827 58.6367
rfemur -11.5055 -2.68803 20.5805
rtibia 41.1724
rfoot -20.9473 -1.86504
rtoes 8.7727
lfemur -6.93229 -2.89296 -24.122
ltibia 28.2782
lfoot -15.2572 -4.91592
ltoes -8.03079
443
root 3.56443 17.6127 7.98914 -2.38909 9.02337 4.95415
lowerback 11.785 2.92063 -2.53643
upperback 1.59253 3.54536 -0.191135
thorax -5.0714 1.79501 0.657998
lowerneck -16.8744 3.42581 -9.40895
upperneck 41.4836 7.60697 4.25877
head 17.6334 2.32337 5.13932
rclavicle 3.67255e-014 -1.35174e-014
rhumerus -35.9229 -14.5326 -78.7216
rradius 34.6346
rwrist 9.3542
rhand -14.9388 10.7553
rfingers 7.12502
rthumb 11.2238 -18.9245
lclavicle 3.67255e-014 -1.35174e-014
lhumerus -30.8311 8.63745 76.4848
lradius 38.7902
lwrist 0.973705
lhand -21.6976 27.476
lfingers 7.12502
lthumb 4.7008 57.4039
rfemur -11.1705 -2.53897 20.5757
rtibia 40.7216
rfoot -21.2179 -1.92159
rtoes 7.55132
lfemur -7.10097 -2.71398 -24.0415
ltibia 28.6771
lfoot -15.5811 -4.75499
ltoes -8.10996
444
root 3.62325 17.601 7.98757 -2.31055 8.76602 4.79002
lowerback 11.7012 2.90289 -2.00918
upperback 1.52132 3.58848 -0.228719
thorax -5.06642 1.8064 0.319217
lowerneck -16.9372 3.4824 -9.32658
upperneck 41.7067 7.7859 4.05452
head 17.7838 2.36203 5.08397
rclavicle -5.01931e-014 -1.51076e-014
rhumerus -35.9974 -14.6886 -78.5893
rradius 34.3403
rwrist 9.41908
rhand -14.6756 10.5881
rfingers 7.12502
rthumb 11.4776 -19.0777
lclavicle -5.01931e-014 -1.51076e-014
lhumerus -30.8755 9.35553 76.2522
lradius 38.4025
lwrist 0.210988
lhand -21.3321 26.9856
lfingers 7.12502
lthumb 5.05367 56.9054
rfemur -11.0106 -2.30518 20.459
rtibia 40.3042
rfoot -21.4685 -1.76446
rtoes 5.60846
lfemur -7.36278 -2.57474 -24.0322
ltibia 29.0995
lfoot -15.9893 -4.52303
ltoes -8.8506
445
root 3.68078 17.5931 7.9849 -2.26455 8.47314 4.60011
lowerback 11.719 2.91124 -1.47432
upperback 1.41687 3.66468 -0.256996
thorax -5.15244 1.83367 -0.0257592
lowerneck -17.0221 3.55246 -9.15031
upperneck 42.0462 7.98433 3.81498
head 18.0173 2.40941 5.01069
rclavicle -2.5842e-014 2.38542e-015
rhumerus -36.1102 -14.6716 -78.4958
rradius 34.0864
rwrist 9.31909
rhand -14.4802 10.2157
rfingers 7.12502
rthumb 11.6661 -19.4395
lclavicle -2.5842e-014 2.38542e-015
lhumerus -31.0646 10.0499 76.0799
lradius 38.1213
lwrist -0.486817
lhand -21.5359 25.4125
lfingers 7.12502
lthumb 4.85688 55.3368
rfemur -10.8824 -2.08739 20.3384
rtibia 39.9281
rfoot -21.6631 -0.959006
rtoes 5.35754
lfemur -7.59603 -2.32603 -23.9813
ltibia 29.516
lfoot -16.3721 -4.33953
ltoes -9.43699
446
root 3.74084 17.5892 7.98793 -2.295 8.22369 4.52031
lowerback 11.7897 2.93298 -1.05829
upperback 1.35748 3.74357 -0.287186
thorax -5.22642 1.86371 -0.308182
lowerneck -17.0073 3.59994 -9.03819
upperneck 42.1815 8.15387 3.54025
head 18.1097 2.44597 4.90445
rclavicle -6.97237e-014 -8.74653e-015
rhumerus -36.1866 -14.7452 -78.2922
rradius 33.7675
rwrist 9.36406
rhand -14.5872 10.0626
rfingers 7.12502
rthumb 11.5629 -19.5985
lclavicle -6.97237e-014 -8.74653e-015
lhumerus -31.3139 10.5862 76.045
lradius 37.988
lwrist -1.02537
lhand -21.6324 25.3325
lfingers 7.12502
lthumb 4.76376 55.259
rfemur -10.7223 -2.26902 20.0421
rtibia 39.6077
rfoot -21.7093 0.112528
rtoes 5.64858
lfemur -7.70246 -2.16478 -24.0841
ltibia 29.9232
lfoot -16.7868 -4.07623
ltoes -9.6048
447
root 3.80176 17.5841 7.99259 -2.32768 8.08462 4.47264
lowerback 11.785 2.87526 -0.722992
upperback 1.34256 3.71102 -0.273042
thorax -5.21889 1.84099 -0.475631
lowerneck -16.8647 3.63519 -9.21624
upperneck 42.1065 8.26126 3.50919
head 18.0107 2.46557 4.92406
rclavicle -6.60462e-014 3.18055e-015
rhumerus -36.1966 -14.6932 -78.0551
rradius 33.4758
rwrist 9.42613
rhand -14.7607 9.96684
rfingers 7.12502
rthumb 11.3955 -19.7035
lclavicle -6.60462e-014 3.18055e-015
lhumerus -31.624 11.2778 76.0481
lradius 37.8969
lwrist -1.72216
lhand -21.6224 26.5287
lfingers 7.12502
lthumb 4.77334 56.4549
rfemur -10.4977 -2.7846 19.6981
rtibia 39.3285
rfoot -21.9981 0.972215
rtoes 4.78004
lfemur -7.79426 -2.00675 -24.2221
ltibia 30.3318
lfoot -17.3876 -3.88356
ltoes -10.3607
